<?xml version="1.0" standalone="no"?>
<!DOCTYPE svg PUBLIC "-//W3C//DTD SVG 20010904//EN"
 "http://www.w3.org/TR/2001/REC-SVG-20010904/DTD/svg10.dtd">
<svg version="1.0" xmlns="http://www.w3.org/2000/svg"
 width="91.000000pt" height="96.000000pt" viewBox="0 0 91.000000 96.000000"
 preserveAspectRatio="xMidYMid meet">
<metadata>
Created by krypton, 23 May, 2020
</metadata>
<g transform="translate(0.000000,96.000000) scale(0.100000,-0.100000)"
fill="#000000" stroke="none">
<path d="M380 464 l0 -385 43 3 42 3 3 383 2 382 -45 0 -45 0 0 -386z"/>
<path d="M108 608 l-38 -10 0 -185 0 -184 38 3 37 3 3 152 c2 126 5 152 18
157 9 3 20 4 25 0 5 -3 9 -75 9 -160 l0 -155 43 3 42 3 3 145 c2 80 0 160 -3
177 -10 56 -81 77 -177 51z"/>
<path d="M560 445 c0 -163 0 -166 25 -190 31 -32 106 -37 168 -13 l27 10 0
180 0 179 -42 -3 -43 -3 -3 -152 c-2 -145 -4 -153 -22 -153 -19 0 -20 7 -20
155 l0 155 -45 0 -45 0 0 -165z"/>
</g>
</svg>
